PathFileType	4	(X/Y/Z)	/Users/itak/Documents/Research/Walk-IL/dataset/trc/00421_00012.trc
DataRate	CameraRate	NumFrames	NumMarkers	Units	OrigDataRate	OrigDataStartFrame	OrigNumFrames
100.000000	100.000000	4	53	mm	100.000000	493	564
Frame#	Time	RPSI			LPSI			L3			STRN			T10			C7			CLAV			RBAK			LBAK			LSHO			LUPA			LAEL			LAOL			LWTS			LWPS			LFRA			LIFD			LHPS			LHTS			RSHO			RUPA			RAEL			RAOL			RWTS			RWPS			RFRA			RIFD			RHPS			RBHD			LFHD			RFHD			LBHD			LHIP			RHIP			RASI			LASI			LKNE			LTHI			LANK			LTIP			LTOE			LMT1			LMT5			LHEE			RKNE			RTHI			RANK			RTIP			RTOE			RMT1			RMT5			RHEE			RHTS			
		X1	Y1	Z1	X2	Y2	Z2	X3	Y3	Z3	X4	Y4	Z4	X5	Y5	Z5	X6	Y6	Z6	X7	Y7	Z7	X8	Y8	Z8	X9	Y9	Z9	X10	Y10	Z10	X11	Y11	Z11	X12	Y12	Z12	X13	Y13	Z13	X14	Y14	Z14	X15	Y15	Z15	X16	Y16	Z16	X17	Y17	Z17	X18	Y18	Z18	X19	Y19	Z19	X20	Y20	Z20	X21	Y21	Z21	X22	Y22	Z22	X23	Y23	Z23	X24	Y24	Z24	X25	Y25	Z25	X26	Y26	Z26	X27	Y27	Z27	X28	Y28	Z28	X29	Y29	Z29	X30	Y30	Z30	X31	Y31	Z31	X32	Y32	Z32	X33	Y33	Z33	X34	Y34	Z34	X35	Y35	Z35	X36	Y36	Z36	X37	Y37	Z37	X38	Y38	Z38	X39	Y39	Z39	X40	Y40	Z40	X41	Y41	Z41	X42	Y42	Z42	X43	Y43	Z43	X44	Y44	Z44	X45	Y45	Z45	X46	Y46	Z46	X47	Y47	Z47	X48	Y48	Z48	X49	Y49	Z49	X50	Y50	Z50	X51	Y51	Z51	X52	Y52	Z52	X53	Y53	Z53	

494	4.93	115.1835174560547	991.2010498046875	554.3836059570312	246.3557434082031	982.8511962890625	556.5733032226562	176.9352569580078	1054.473388671875	558.9985961914062	166.4116363525391	1213.265991210938	789.7449951171875	181.8673706054688	1156.723999023438	546.3997802734375	191.2920227050781	1407.060913085938	574.9663696289062	171.2479095458984	1331.829467773438	734.4866333007812	121.3097152709961	1260.911865234375	531.9207153320312	294.2947998046875	1367.943237304688	571.5941772460938	335.8663024902344	1385.734985351562	661.639892578125	410.3000793457031	1270.934448242188	653.7234497070312	437.5090942382812	1077.352905273438	698.2186279296875	385.1554260253906	1048.119384765625	636.6458129882812	384.1878356933594	868.8394775390625	803.356201171875	455.369873046875	854.5577392578125	765.4600219726562	446.9796752929688	975.094482421875	726.7424926757812	390.90478515625	688.8772583007812	811.8103637695312	446.3373413085938	769.4796752929688	782.9483032226562	402.0476379394531	772.8748168945312	828.2613525390625	28.81612205505371	1390.9599609375	623.9948120117188	-32.33037185668945	1326.048706054688	614.8731079101562	-97.16724395751953	1077.167846679688	684.9754028320312	-7.11066722869873	1051.612182617188	663.1157836914062	-73.73133087158203	916.3114624023438	878.693359375	-136.5682525634766	896.3154296875	845.8226928710938	-114.7576293945312	1024.558349609375	731.309326171875	-87.38392639160156	756.5108642578125	944.6519775390625	-143.3907012939453	818.39111328125	885.3570556640625	111.5298919677734	1586.520263671875	577.348876953125	223.7117919921875	1618.54150390625	740.0831909179688	106.0835418701172	1619.001586914062	708.503173828125	270.8269653320312	1581.371337890625	602.6334228515625	355.3597412109375	968.23095703125	648.6338500976562	-2.081596612930298	963.8317260742188	633.7199096679688	47.20848083496094	968.4091186523438	769.2437133789062	313.4579162597656	963.32373046875	764.0726318359375	341.9030151367188	475.0525207519531	667.6129150390625	350.4846801757812	617.5217895507812	669.521484375	312.5396728515625	40.72215270996094	561.8148193359375	340.6058349609375	245.5566101074219	613.030029296875	247.5223388671875	39.77546691894531	777.4593505859375	218.5453796386719	43.57480621337891	695.3156127929688	323.4996032714844	38.98429489135742	688.65478515625	255.7559356689453	38.28363037109375	523.1746215820312	23.77836418151855	472.9001159667969	644.4428100585938	-2.616559505462646	732.8150024414062	697.6302490234375	75.19509887695312	50.4747428894043	597.2540893554688	40.34910583496094	347.9203491210938	650.0140380859375	127.2455444335938	39.48589706420898	779.4359130859375	161.0851287841797	44.75384902954102	706.99658203125	61.92584228515625	43.6023063659668	681.235107421875	132.6134338378906	40.93790817260742	527.2621459960938	-97.86005401611328	828.1187133789062	936.1366577148438	
495	4.94	115.183837890625	990.94873046875	555.4168701171875	246.3363952636719	982.7966918945312	557.092041015625	176.8883361816406	1054.34033203125	559.5855102539062	166.9240417480469	1213.161254882812	790.2296142578125	181.9580841064453	1156.574462890625	546.8530883789062	191.4924621582031	1406.944946289062	575.4390869140625	171.6891021728516	1331.739501953125	734.9711303710938	121.4474639892578	1260.80419921875	532.54443359375	294.3749694824219	1367.786376953125	571.8363647460938	336.1672058105469	1385.646362304688	661.7837524414062	410.6731872558594	1270.862915039062	653.5975952148438	438.2035827636719	1077.287475585938	697.7131958007812	385.5297241210938	1048.0634765625	636.4302368164062	385.6774597167969	869.1233520507812	803.7176513671875	456.463623046875	854.5694580078125	765.1802978515625	447.8624267578125	975.0438842773438	726.3134155273438	392.7162170410156	689.2925415039062	813.6646728515625	447.6648864746094	769.695556640625	783.3666381835938	403.8701782226562	773.454345703125	829.180419921875	29.04893684387207	1390.850219726562	624.7293090820312	-32.11565017700195	1325.951293945312	615.6658935546875	-96.56500244140625	1076.977661132812	685.7882690429688	-6.707055568695068	1051.507934570312	663.6165161132812	-72.77969360351562	915.3928833007812	878.87109375	-135.7444915771484	895.6027221679688	846.1069946289062	-114.21142578125	1024.287109375	731.936767578125	-86.21353149414062	754.9707641601562	943.6461791992188	-142.3473052978516	817.195068359375	885.0386962890625	111.9051055908203	1586.431518554688	577.9041748046875	224.1712951660156	1618.432006835938	740.5853881835938	106.5203704833984	1618.956787109375	709.0514526367188	271.1942443847656	1581.154296875	603.099853515625	355.4598388671875	968.1631469726562	648.9132690429688	-1.867881774902344	963.7439575195312	634.8330688476562	47.61660385131836	968.272705078125	770.0848388671875	313.75146484375	963.15478515625	764.2322387695312	342.1618957519531	475.0333251953125	667.46875	350.7803039550781	617.46728515625	669.4580078125	312.422607421875	40.60931015014648	561.8074340820312	340.7869873046875	245.5456085205078	612.9279174804688	247.5440216064453	39.7891960144043	777.4415893554688	218.5571746826172	43.59390258789062	695.3765869140625	323.5216979980469	38.94699096679688	688.6392211914062	255.7775573730469	38.28695678710938	523.1387939453125	24.02751731872559	472.8516540527344	644.9977416992188	-2.349186658859253	732.7095336914062	698.5869140625	75.420654296875	50.44766998291016	597.3687744140625	40.62171936035156	347.8573303222656	650.3988037109375	127.2617721557617	39.47913360595703	779.4703979492188	161.1086730957031	44.72499465942383	706.99609375	61.99663543701172	43.58905029296875	681.2581787109375	132.6046295166016	40.96464920043945	527.2620239257812	-96.73210906982422	826.678955078125	935.7466430664062	
496	4.95	115.1582794189453	990.7127075195312	556.4923706054688	246.3078155517578	982.7476806640625	557.599609375	176.8574066162109	1054.184692382812	560.1806030273438	167.4704284667969	1213.06591796875	790.6951293945312	182.0433959960938	1156.404296875	547.276123046875	191.6787872314453	1406.806274414062	575.859375	172.1604309082031	1331.64404296875	735.4254150390625	121.5865325927734	1260.664916992188	533.1231689453125	294.4542236328125	1367.607299804688	572.019775390625	336.4580993652344	1385.553100585938	661.8672485351562	411.0506591796875	1270.768188476562	653.4373779296875	438.8514404296875	1077.212768554688	697.2749633789062	385.8236389160156	1047.994506835938	636.3192138671875	387.1266174316406	869.408203125	804.1785888671875	457.5212707519531	854.5936889648438	765.0033569335938	448.6898803710938	974.9982299804688	725.97412109375	394.4947814941406	689.7117919921875	815.5067138671875	448.9581604003906	769.924560546875	783.852783203125	405.6899108886719	774.0302124023438	830.1503295898438	29.27663803100586	1390.723022460938	625.4263916015625	-31.88850212097168	1325.837158203125	616.4052124023438	-95.94332885742188	1076.746215820312	686.4677124023438	-6.258155345916748	1051.3681640625	663.9969482421875	-71.85089874267578	914.3554077148438	878.8720092773438	-134.9145660400391	894.7891845703125	846.1831665039062	-113.6243743896484	1023.954162597656	732.4292602539062	-84.97811889648438	753.2568359375	942.3076171875	-141.2525939941406	815.81982421875	884.4676513671875	112.2814331054688	1586.3603515625	578.4398193359375	224.66064453125	1618.282348632812	741.057861328125	106.9742126464844	1618.893310546875	709.5789184570312	271.5670471191406	1580.932006835938	603.5357666015625	355.5677490234375	968.0985717773438	649.1468505859375	-1.670660376548767	963.681396484375	635.9695434570312	48.07421875	968.1145629882812	770.9232177734375	314.0810852050781	963.0340576171875	764.415283203125	342.4584350585938	475.0093383789062	667.2987060546875	351.0994873046875	617.4067993164062	669.3709716796875	312.3182678222656	40.49396896362305	561.8005981445312	340.9890747070312	245.5267028808594	612.8116455078125	247.5653228759766	39.80414581298828	777.4200439453125	218.5651245117188	43.61967849731445	695.4505615234375	323.5536804199219	38.90914154052734	688.6243896484375	255.8197174072266	38.29378128051758	523.101318359375	24.24402809143066	472.8124389648438	645.4811401367188	-2.055552005767822	732.6112670898438	699.5355224609375	75.57074737548828	50.43678665161133	597.4435424804688	40.86953735351562	347.8038940429688	650.7304077148438	127.2695541381836	39.47563934326172	779.491943359375	161.1320953369141	44.70074081420898	706.99169921875	62.0641975402832	43.57222366333008	681.277099609375	132.5938720703125	40.98411560058594	527.2532348632812	-95.54197692871094	825.0631713867188	935.0866088867188	
497	4.96	115.1004104614258	990.5175170898438	557.5689697265625	246.2698364257812	982.7052001953125	558.0914916992188	176.8551635742188	1054.01025390625	560.7868041992188	168.0489349365234	1212.977294921875	791.1430053710938	182.1101531982422	1156.215209960938	547.676025390625	191.8421020507812	1406.647583007812	576.2265014648438	172.6489410400391	1331.543579101562	735.8507690429688	121.7109832763672	1260.490112304688	533.6556396484375	294.5393371582031	1367.411499023438	572.1514892578125	336.739501953125	1385.454223632812	661.8978271484375	411.422607421875	1270.654418945312	653.249267578125	439.4548645019531	1077.129028320312	696.9105834960938	386.0576171875	1047.911499023438	636.3102416992188	388.5175170898438	869.688720703125	804.728515625	458.5411682128906	854.6318969726562	764.932373046875	449.4643859863281	974.9583740234375	725.728271484375	396.2192077636719	690.128662109375	817.3062744140625	450.2014770507812	770.1616821289062	784.3995361328125	407.4934692382812	774.5909423828125	831.1541137695312	29.50264930725098	1390.578857421875	626.0885009765625	-31.64566040039062	1325.7060546875	617.1005859375	-95.31945037841797	1076.473876953125	687.0126953125	-5.768167495727539	1051.1953125	664.2637939453125	-70.93889617919922	913.2138671875	878.7049560546875	-134.0889892578125	893.8773193359375	846.060546875	-112.9885940551758	1023.557312011719	732.798828125	-83.68424224853516	751.4044189453125	940.6716918945312	-140.1023559570312	814.2963256835938	883.668212890625	112.6518478393555	1586.305908203125	578.9595336914062	225.1784515380859	1618.10107421875	741.5031127929688	107.4454345703125	1618.810546875	710.0927734375	271.9480590820312	1580.713500976562	603.948486328125	355.6851196289062	968.0385131835938	649.3321533203125	-1.511672258377075	963.6403198242188	637.1049194335938	48.58264541625977	967.9501953125	771.767578125	314.4463500976562	962.95166015625	764.620849609375	342.789306640625	474.9794616699219	667.1074829101562	351.4324340820312	617.3441162109375	669.265869140625	312.2405700683594	40.38387298583984	561.7945556640625	341.2043762207031	245.4974517822266	612.6810302734375	247.5863342285156	39.8200798034668	777.3950805664062	218.575927734375	43.65414047241211	695.5279541015625	323.5983276367188	38.87226486206055	688.6109008789062	255.8779144287109	38.30252838134766	523.0645141601562	24.4312744140625	472.7821655273438	645.89111328125	-1.735450625419617	732.519775390625	700.4669799804688	75.61756134033203	50.45231246948242	597.4639892578125	41.09199905395508	347.7604370117188	651.0097045898438	127.2711334228516	39.47536468505859	779.501708984375	161.1558227539062	44.68096923828125	706.9851684570312	62.12574005126953	43.55337142944336	681.2899169921875	132.5874633789062	40.9949836730957	527.23681640625	-94.2899169921875	823.29931640625	934.18017578125	
